<!--?xml version="1.0" standalone="no"?-->
              <svg id="sw-js-blob-svg" viewBox="0 0 100 100" xmlns="http://www.w3.org/2000/svg" version="1.1">
                    <defs> 
                        <linearGradient id="sw-gradient" x1="0" x2="1" y1="1" y2="0">
                            <stop id="stop1" stop-color="rgba(255, 92, 53, 1)" offset="0%"></stop>
                            <stop id="stop2" stop-color="rgba(251, 168, 31, 1)" offset="100%"></stop>
                        </linearGradient>
                    </defs>
                <path fill="url(#sw-gradient)" d="M21.2,-37C28.1,-32.7,34.9,-28.4,39.5,-22.2C44.2,-16,46.7,-8,46.3,-0.2C45.9,7.6,42.6,15.1,37.9,21.3C33.3,27.5,27.4,32.3,20.9,35.7C14.3,39.1,7.2,41,-0.4,41.6C-7.9,42.2,-15.7,41.5,-22.7,38.4C-29.7,35.3,-35.7,29.7,-37.5,22.9C-39.3,16.1,-36.7,8,-34.8,1.1C-32.9,-5.9,-31.7,-11.8,-30.1,-18.8C-28.5,-25.9,-26.5,-34.2,-21.4,-39.5C-16.3,-44.9,-8.2,-47.4,-0.5,-46.5C7.1,-45.6,14.3,-41.3,21.2,-37Z" width="100%" height="100%" transform="translate(50 50)" stroke-width="0" style="transition: all 0.3s ease 0s;"></path>
              </svg>