<svg id="Layer_1" enable-background="new 0 0 2000 2000" height="512" viewBox="0 0 2000 2000" width="512" xmlns="http://www.w3.org/2000/svg"><g><g><path d="m1677.49 541.79 7.36-130.35c1.73-9.97-.3-20.07-5.82-28.62-5.82-9.02-14.79-15.23-25.28-17.49-13.04-2.82-26.58 1.01-36.22 10.22-.08.07-.14.15-.21.23-.07.07-.16.14-.23.21l-84.43 86.47c-33.15-29.17-80.77-51.11-136.49-62.56-56.06-12.67-109-12.2-151.46 1.1-7.94-21.06-13.23-35.09-18.52-49.12-6.57-17.42-13.15-34.85-24.8-65.79-.02-.07-.06-.13-.08-.19s-.04-.13-.06-.19c-4.98-12.37-15.75-21.44-28.78-24.25-10.48-2.26-21.23-.31-30.24 5.51-8.55 5.52-14.58 13.88-17.1 23.68-11.53 29.99-17.85 46.26-23.95 62-5.95 15.34-12.1 31.19-23.08 59.73-30.8 34.14-52.08 60.84-68.83 94.29-16.67 33.29-27.49 71.15-34.48 121.24-171.6 1.96-314.86 35.97-426.01 101.18-52.25 30.66-97.12 68.23-133.35 111.66-34.25 41.06-60.87 87.43-79.14 137.83-19.3 53.24-29.13 110.4-29.24 169.88-.1 57.17 8.75 115.1 26.32 172.16 35.16 114.22 103.85 218.28 193.4 293 87.05 72.64 191.01 115.58 300.62 124.18 13.88 1.09 27.86 1.63 41.92 1.63 46.33 0 93.53-5.9 140.83-17.63 65.34-16.21 131.63-43.76 197.05-81.88.01 0 .01-.01.02-.01 36.08-20.86 56.78-51.46 56.78-83.97 0-26-13.72-50.07-35.8-62.82-23.76-13.72-52.93-12.63-80.02 2.99-.23.14-.46.29-.69.44-.32.2-.64.39-.94.61-144.05 103.82-305.09 107.89-430.78 10.89-52.16-40.25-91.49-92.45-116.15-150.16 7.28 2.02 14.87 3.07 22.58 3.07h873.07c25.44 0 46.13-20.7 46.13-46.14 0-12.15-4.92-24-13.49-32.6-.15-.19-.28-.39-.44-.57l-37.15-43.34c-.53-.62-1.11-1.18-1.7-1.71l.01-.01c-2.89-2.57-4.54-6.26-4.54-10.12 0-1.03.11-2.05.34-3.02l-.47-.11c-6.68-127.05 46.25-268.05 138.47-368.48.04-.04.07-.08.1-.12s.07-.07.11-.11c35.31-39.8 58.44-93.34 66.9-154.81 7.3-53.36 3.03-109.33-12.04-158.03zm-81.77 289c-47.39 51.66-86.13 114.55-112.05 181.87-27.26 70.82-39.55 145.08-35.53 214.76.25 13.25 5.83 25.86 15.44 34.97l36.55 42.65c.2.23.41.43.62.65.5.65 1.03 1.27 1.62 1.86 1.94 1.91 3.05 4.57 3.05 7.29 0 5.63-4.58 10.22-10.21 10.22h-222.94c.75-3.29 1.15-6.71 1.15-10.22 0-12.28-5.02-24.26-13.77-32.88-.4-.4-.82-.76-1.25-1.12l-30.24-30.18.47-.48c-3.71-3.65-5.84-8.73-5.84-13.93 0-.44.02-.88.05-1.3 5.18-45.06 1.95-91.58-9.35-134.56-12.71-48.38-35.51-90.43-65.91-121.58-23.56-24.14-51.67-42.01-83.58-53.14-34.47-12.02-73.45-16.13-115.85-12.23-9.88.91-17.15 9.65-16.24 19.53s9.66 17.15 19.53 16.24c71.26-6.57 128.61 11.83 170.43 54.69 60.44 61.92 73.31 158.15 65.22 227.55-.03.26-.03.52-.05.78h-.02c-.1 1.32-.14 2.67-.14 4.02 0 12.46 4.31 24.66 11.98 34.39.86 1.83 2.03 3.55 3.55 5.06l32.26 32.2c.17.17.36.32.54.49 1.47 1.81 2.3 4.1 2.3 6.45 0 5.63-4.58 10.22-10.22 10.22h-605.15c-15.77 0-30.67-7.66-39.84-20.5l-.8.57c-18.77-71.91-15.98-148.93 11.54-220.23 3.57-9.25-1.03-19.65-10.29-23.22-9.25-3.57-19.65 1.03-23.22 10.29-16.27 42.15-25 86.38-25.96 131.47-.91 42.86 5.2 85.77 18.16 127.52 25.24 81.34 75.69 154.34 142.04 205.54 64.03 49.42 139.16 76.24 217.27 77.56 2.02.03 4.04.05 6.07.05 39.98 0 80.41-6.69 120.26-19.92 43.9-14.57 87.37-37.2 129.23-67.24 15.73-8.89 31.19-9.87 43.59-2.71 11.01 6.35 17.84 18.51 17.84 31.71 0 19.36-14.18 38.64-38.9 52.92-.01.01-.02.01-.03.02s-.02.01-.04.02c-108.15 63.04-217.18 94.44-320.85 94.43-115.8-.01-224.9-39.2-318.47-117.28-175.93-146.8-251.51-397.13-179.71-595.23 76.44-210.92 296.8-327.08 620.49-327.09h.06c.6 0 1.19-.03 1.77-.09.12-.01.23-.03.35-.05.46-.05.91-.12 1.35-.21.2-.04.4-.1.6-.14.35-.08.69-.16 1.04-.27.24-.07.47-.15.71-.24.29-.1.58-.2.87-.32.25-.1.49-.21.73-.32.26-.12.52-.24.78-.38l.72-.39c.25-.14.49-.29.73-.44.23-.14.45-.29.67-.45.24-.17.48-.35.71-.53.2-.16.4-.31.59-.48.24-.2.47-.42.7-.64.17-.16.34-.32.51-.49.24-.25.47-.5.69-.76.14-.16.28-.31.41-.47.24-.29.46-.6.68-.91.1-.15.22-.29.31-.44.23-.35.45-.71.65-1.07.07-.12.15-.24.22-.37.24-.44.45-.89.65-1.35.03-.06.06-.13.09-.19.22-.52.41-1.05.58-1.59.08-.25.13-.51.2-.76.08-.3.17-.59.23-.9.06-.28.09-.57.14-.85.04-.26.1-.51.13-.77 12.96-109.35 39.93-149.15 98.33-213.64.03-.03.05-.06.08-.09.05-.05.09-.1.14-.15.03-.03.06-.07.09-.11.33-.37.64-.76.94-1.15.08-.1.16-.21.23-.31.26-.36.51-.74.75-1.13.06-.1.13-.2.19-.3.26-.44.5-.9.72-1.37.1-.21.18-.42.27-.63.09-.2.18-.4.26-.61 11.72-30.47 18.09-46.88 24.24-62.75 6.19-15.95 12.58-32.44 24.4-63.16.05-.12.07-.24.12-.36.13-.36.26-.73.36-1.11.07-.24.13-.47.19-.71.04-.16.09-.32.13-.48.31-1.42 1.17-2.23 1.85-2.67.67-.44 1.78-.89 3.2-.58 1.36.29 2.48 1.23 3.01 2.51 11.58 30.74 18.14 48.11 24.69 65.48 6.57 17.42 13.15 34.85 24.8 65.79.06.17.14.33.21.5.04.1.07.2.11.29s.08.17.12.26c.1.21.2.43.3.64.1.2.2.4.31.6.11.21.23.41.35.62.11.19.23.38.35.56.13.2.26.39.39.58.13.18.26.36.4.54s.27.35.41.52c.15.18.3.35.45.52.14.16.29.32.43.47.16.17.33.34.5.5.15.14.3.28.45.42.18.16.36.32.55.47.15.13.31.25.46.37.19.15.39.29.59.43.16.11.32.23.48.33.2.13.41.26.62.39.17.1.33.2.51.3.21.12.42.23.63.33.18.09.36.18.54.27.21.1.43.19.64.28.19.08.38.16.57.24.21.08.42.15.64.22.2.07.4.14.61.2s.42.11.63.17.42.12.64.16c.21.05.42.08.64.12s.44.09.66.12.45.05.67.08c.21.02.43.05.64.07.31.02.61.03.92.04.13 0 .26.01.39.01.56 0 1.13-.03 1.69-.09.2-.02.39-.05.59-.08.36-.05.73-.1 1.09-.17.24-.05.47-.11.71-.16.33-.08.66-.16.99-.26.24-.07.48-.15.71-.23.18-.06.36-.11.54-.18.14-.05.27-.12.4-.18.13-.05.26-.09.39-.15 37.48-16.2 91.1-18.22 147.09-5.53l.18.03c.06.01.12.03.18.05 53.59 10.99 99.69 33.25 127.68 61.47.87 1.71 2.01 3.31 3.45 4.72 2.72 2.65 6.06 4.26 9.54 4.84 1.43.35 2.88.55 4.34.55 4.31 0 8.63-1.54 12.08-4.67 1.92-1.75 3.37-3.83 4.35-6.06l92.22-94.44c1.01-.92 2.4-1.3 3.74-1.01 1.42.31 2.24 1.17 2.67 1.85.43.67.89 1.77.58 3.19-.03.14-.04.28-.07.42-.06.32-.11.64-.16.96-.04.32-.08.64-.1.95-.01.15-.04.29-.05.44l-7.61 134.75c-.01.14 0 .28 0 .41-.01.39-.02.77-.01 1.16.01.25.03.5.04.75.02.33.05.65.09.98.04.32.09.63.15.94.05.25.09.51.15.76.08.37.19.73.29 1.1.04.14.07.28.11.42 26.87 83.48 19.49 206.88-46.51 281.3z"/></g><g><path d="m1234.33 560.18c-11.85-6.02-26.04-5.13-37.04 2.32-16.68 11.3-21.06 34.07-9.77 50.75 3.46 5.11 8.2 9.29 13.71 12.09h.01c.09.04.18.08.27.13 5.05 2.51 10.65 3.83 16.28 3.83.43 0 .87-.01 1.3-.02 9.76-.35 18.79-4.47 25.44-11.62 6.65-7.14 10.12-16.45 9.77-26.2-.47-13.28-8.13-25.26-19.97-31.28zm-16.84 33.13c-.09-.05-.17-.12-.23-.2-.19-.28-.12-.67.16-.86.19-.13.43-.14.63-.04s.33.31.34.53c0 .09.01.26-.17.45-.17.19-.34.19-.44.2-.09-.01-.19-.03-.29-.08.01 0 .01 0 0 0z"/></g><g><path d="m1502.64 617.9c-.01 0-.01-.01-.02-.01-11.92-6.05-26.19-5.16-37.24 2.33-16.77 11.36-21.18 34.25-9.82 51.02 3.48 5.14 8.25 9.34 13.78 12.15 5.15 2.62 10.88 3.98 16.65 3.98.44 0 .87-.01 1.31-.02 20.24-.72 36.13-17.78 35.41-38.03-.49-13.33-8.18-25.37-20.07-31.42zm-17.34 33.2c-.25-.37-.16-.88.23-1.14.24-.16.56-.18.82-.05.27.14.44.41.45.7.02.45-.34.83-.79.85-.13 0-.27-.02-.39-.09-.13-.06-.24-.16-.32-.27z"/></g><g><path d="m1367.43 684.62-55.67-12.01c-6.27-1.35-12.79.74-17.1 5.5s-5.75 11.45-3.79 17.56l17.43 54.22c1.96 6.11 7.04 10.71 13.31 12.06 1.26.27 2.53.4 3.79.4 5.01 0 9.87-2.1 13.31-5.9l38.24-42.21c4.31-4.76 5.75-11.45 3.79-17.56s-7.04-10.7-13.31-12.06z"/></g></g></svg>