<svg id="Layer_1" enable-background="new 0 0 2000 2000" height="512" viewBox="0 0 2000 2000" width="512" xmlns="http://www.w3.org/2000/svg"><g><g><path d="m840.7 546.73c-.01 0-.02 0-.02 0-13.09 3.45-23.28 13.74-26.61 26.86-2.44 9.64-.99 19.65 4.1 28.2 5.09 8.54 13.2 14.6 22.85 17.04 2.99.76 6.06 1.13 9.14 1.13 2.8 0 5.59-.33 8.32-.96.39-.07.77-.16 1.16-.26 6.09-1.6 11.71-4.75 16.26-9.1 14.84-14.19 15.37-37.8 1.18-52.64-9.37-9.77-23.3-13.71-36.38-10.27zm9.79 37.27c-.22.06-.45.06-.66.01-.7-.18-1.13-.89-.95-1.59.12-.46.47-.82.93-.94.46-.12.95.02 1.28.36.09.1.37.39.36.93s-.31.82-.4.92c-.15.15-.34.26-.56.31z"/></g><g><path d="m560.71 546.58c-13.15 3.46-23.39 13.8-26.72 26.97-2.45 9.68-.99 19.74 4.12 28.32s13.26 14.66 22.94 17.11c3.01.76 6.1 1.14 9.19 1.14 2.81 0 5.61-.33 8.36-.96.39-.07.77-.16 1.16-.26 6.11-1.61 11.75-4.77 16.32-9.13 7.22-6.9 11.32-16.2 11.54-26.19.22-9.98-3.45-19.46-10.36-26.67-9.41-9.83-23.41-13.79-36.55-10.33zm9.88 37.58c-.23.06-.49.06-.73 0-.15-.04-.59-.15-.9-.67s-.2-.97-.16-1.11c.13-.52.53-.92 1.05-1.06s1.07.02 1.44.4c.1.11.42.44.41 1.05s-.34.92-.45 1.02c-.19.18-.41.3-.66.37z"/></g><g><path d="m1591.13 935.66c-20.69-36.32-47.27-69.48-79.01-98.56-33.01-30.25-71.84-56.29-115.43-77.42-88-42.65-195.02-65.54-318.39-68.13 6.83-24.58 9.53-51.09 7.98-79.02-3.09-55.9-23.25-117.88-58.31-179.45-4.83-30.97-7.56-48.13-10.19-64.75-2.7-16.99-5.49-34.57-10.53-66.91-.88-21.63-18.74-38.95-40.58-38.95-13.49 0-26.05 6.67-33.62 17.83-.04.06-.07.12-.11.18s-.08.11-.12.16c-18.32 28.4-28.63 44.37-38.95 60.36-8.32 12.88-16.65 25.78-29.17 45.2-39.45-22.48-92.22-34.4-150.94-33.82-58.12-.56-110.39 11.11-149.71 33.14l-65.78-104.7c-.06-.09-.12-.17-.18-.26s-.1-.18-.16-.27c-7.57-11.16-20.14-17.83-33.62-17.83-21.83 0-39.69 17.32-40.58 38.94l-20.72 131.7c-59.19 105.11-72.48 268.05 19 366.94 148.29 192.99 135.31 402.54 130.42 481.48-.47 7.61-.88 14.18-1.07 19.54-.01.22.01.43.01.65h-.02c0 4.05-1.73 7.91-4.75 10.6l.01.01c-.59.53-1.17 1.09-1.7 1.71l-37.9 44.21c-.17.2-.32.41-.48.62-8.68 8.7-13.65 20.69-13.65 32.99 0 25.76 20.95 46.71 46.71 46.71h703.59c2.1 0 4.19-.09 6.27-.24-1.86 2.52-3.76 5.02-5.71 7.5-66.66 84.76-183.2 142.56-346.4 171.78-.24.04-.47.11-.71.16-.26.06-.51.1-.77.17-.09.02-.17.05-.25.07-.04.01-.07.02-.11.03-19.7 5.34-35.78 14.94-46.51 27.78-10.79 12.91-15.64 28.38-13.64 43.55 3.14 23.83 24.5 47.88 65.16 48.03h.06c5.76.1 11.51.15 17.24.15 72.02 0 141.77-7.83 207.56-23.31 66.97-15.76 130.28-39.53 188.19-70.66 108.08-58.1 196.21-141.11 254.87-240.07 44.5-75.07 70.4-157.29 74.89-237.77 4.59-82.51-13.45-162.07-52.19-230.07zm-53.62 449.52c-117.89 198.88-348.87 316.43-620.07 316.43-5.4 0-10.83-.05-16.26-.14-.05 0-.1.01-.16.01-.05 0-.1-.01-.15-.01-16.83 0-28.58-6.59-29.92-16.8-1.39-10.56 8.55-24.98 33.61-31.88 87.28-15.7 162.76-39.61 224.35-71.08 59.52-30.41 107.65-68.66 143.07-113.69 15.37-19.55 28.45-40.46 39.22-62.69.73-.94 1.46-1.9 2.16-2.87l-.59-.42c33.73-71.55 43.85-156.6 30.07-253.9-1.39-9.82-10.49-16.65-20.3-15.26-9.82 1.39-16.65 10.48-15.26 20.3 12.71 89.72 3.72 167.71-26.71 232.82-9.47 10.5-23.07 16.64-37.37 16.64h-430.27c-5.95 0-10.79-4.84-10.79-10.79 0-2.48.88-4.91 2.44-6.82.19-.17.38-.33.56-.51l32.92-32.85c1.53-1.52 2.7-3.26 3.57-5.11 7.78-9.87 12.16-22.25 12.16-34.89 0-1.36-.05-2.74-.15-4.09h-.02c-.02-.26-.02-.51-.05-.77-8.27-70.89 4.89-169.18 66.64-232.45 42.75-43.8 101.35-62.62 174.17-55.9 9.89.91 18.62-6.36 19.53-16.24s-6.36-18.62-16.24-19.53c-43.21-3.98-82.93.21-118.04 12.46-32.5 11.33-61.14 29.54-85.13 54.13-30.97 31.74-54.2 74.57-67.15 123.88-11.52 43.82-14.8 91.23-9.53 137.17.03.45.05.9.05 1.35 0 5.41-2.21 10.69-6.07 14.48l.48.49-30.85 30.79c-.44.36-.87.73-1.28 1.13-8.86 8.72-13.94 20.85-13.94 33.28 0 3.71.45 7.32 1.27 10.79h-227.9c-5.95 0-10.79-4.84-10.79-10.79 0-2.87 1.17-5.67 3.22-7.68.61-.6 1.15-1.24 1.66-1.91.2-.21.42-.41.61-.64l37.31-43.52c9.8-9.27 15.46-22.14 15.66-35.65 0-.03.01-.06.01-.09.18-4.9.57-11.26 1.03-18.62 5.12-82.67 18.73-302.24-138.12-506.02-.01-.02-.03-.03-.04-.05-.02-.03-.04-.05-.06-.08-.17-.22-.36-.42-.54-.64-.19-.22-.36-.45-.56-.66-81.33-87.12-67.49-234.11-13.17-328.2.3-.52.58-1.06.83-1.62.04-.09.07-.18.11-.27.18-.42.35-.85.5-1.28.09-.25.15-.5.23-.75.08-.28.17-.56.23-.84.08-.31.13-.63.19-.95.03-.16.07-.32.1-.48l21.4-136.03c.02-.14.03-.29.05-.43.04-.32.08-.64.1-.96.03-.32.04-.64.05-.96 0-.15.02-.29.02-.44 0-2.59 2.11-4.7 4.7-4.7 1.52 0 2.94.74 3.82 1.97l71.69 114.1c.48 2.42 1.46 4.77 2.99 6.91 3.51 4.91 9.03 7.52 14.63 7.52.21 0 .41-.02.62-.02.26.01.52.02.78.02 3.26 0 6.57-.89 9.54-2.75 1.73-1.08 3.19-2.42 4.4-3.92 34.05-22.17 84.92-34.47 140.82-33.91h.19.09.09c58.64-.59 111.77 12.98 145.72 37.24.15.1.3.19.45.29.09.06.17.13.26.19s.18.1.26.16c.18.11.37.22.55.33.21.12.42.24.63.35.19.1.39.2.59.29.21.1.43.2.65.29.2.08.39.17.59.24.23.09.45.17.68.25.19.06.38.13.57.19.25.07.49.14.74.2.18.05.36.09.53.13.27.06.55.11.83.16.15.03.31.06.46.08.33.05.66.08.98.11.11.01.21.03.32.03.44.03.88.05 1.32.05.17 0 .35-.01.52-.02.18-.01.36-.01.54-.02.17-.01.34-.03.51-.04.19-.02.38-.03.57-.05.16-.02.32-.05.48-.07.2-.03.39-.06.59-.09.15-.03.31-.06.46-.09.2-.04.4-.08.6-.13.15-.04.29-.08.44-.12.2-.05.4-.11.61-.17.14-.04.28-.09.42-.14.2-.07.4-.14.6-.21.14-.05.28-.11.41-.16.2-.08.39-.16.59-.25.14-.06.27-.13.41-.19.19-.09.38-.18.57-.28.14-.07.27-.15.41-.22.18-.1.36-.2.54-.31.14-.08.27-.17.41-.25.17-.11.34-.22.5-.33.14-.1.28-.19.42-.29.15-.11.31-.23.46-.35.14-.11.28-.22.42-.34s.28-.24.42-.36.28-.25.42-.38c.13-.12.26-.25.38-.37l.42-.42c.12-.13.23-.26.35-.39.13-.15.27-.3.4-.46.11-.14.22-.28.33-.42.12-.16.24-.31.36-.47l.09-.12c.04-.06.07-.11.11-.17.12-.18.25-.35.37-.54 18.25-28.29 28.55-44.25 38.84-60.18 10.29-15.94 20.57-31.86 38.77-60.07.88-1.26 2.31-2.02 3.85-2.02 2.59 0 4.7 2.11 4.7 4.7 0 .14.02.28.02.42.01.32.02.64.05.96.02.32.06.64.1.95.02.14.02.28.04.42 5.16 33.11 7.98 50.9 10.72 68.12 2.73 17.17 5.55 34.92 10.69 67.91.03.17.07.33.1.49.06.32.12.63.19.95.07.29.15.57.24.85.07.25.14.5.22.75.16.46.34.91.53 1.35.03.07.05.14.08.21.25.56.53 1.09.83 1.62 34.58 59.9 104.08 210.13 2.85 311.36-7.01 7.01-7.01 18.39 0 25.4 3.51 3.51 8.1 5.26 12.7 5.26s9.19-1.75 12.7-5.26c17.23-17.23 31.06-36.53 41.34-57.58 237.61 2.25 413.22 82.36 495.15 226.17 71.64 125.79 63.26 287.18-22.43 431.74z"/></g><g><path d="m739.24 642.51h-58.11c-6.42 0-12.35 3.42-15.55 8.98-3.21 5.56-3.21 12.4 0 17.96l29.05 50.32c3.21 5.56 9.14 8.98 15.55 8.98 6.42 0 12.35-3.42 15.55-8.98l29.06-50.32c3.21-5.56 3.21-12.4 0-17.96s-9.14-8.98-15.55-8.98z"/></g></g></svg>